<svg id="svg" version="1.1" width="400" height="225" viewBox="0 0 400 225" xmlns="http://www.w3.org/2000/svg" xmlns:xlink="http://www.w3.org/1999/xlink" ><g id="svgg"><path id="path3" d="" stroke="none" fill="#fff" fill-rule="evenodd"></path><path id="path4" d="" stroke="none" fill="#fff" fill-rule="evenodd"></path><path id="path0" d="M90.536 16.510 C 89.824 17.228,88.750 21.603,88.750 23.788 C 88.750 24.631,88.595 25.581,87.377 32.207 C 87.101 33.707,86.876 35.301,86.876 35.748 C 86.877 36.196,86.735 37.359,86.561 38.333 C 86.387 39.307,86.052 41.182,85.816 42.500 C 85.581 43.818,85.302 45.599,85.195 46.458 C 84.810 49.570,84.547 51.384,84.259 52.917 C 83.651 56.152,83.316 58.290,83.116 60.208 C 82.916 62.126,82.510 64.623,81.659 69.167 C 81.434 70.370,81.250 71.757,81.250 72.250 C 81.250 72.742,81.067 74.148,80.844 75.375 C 80.620 76.601,80.198 78.921,79.906 80.530 C 79.614 82.139,79.375 83.827,79.375 84.280 C 79.375 84.733,79.240 85.854,79.075 86.771 C 78.004 92.703,77.678 94.691,77.501 96.354 C 77.246 98.754,76.972 100.556,76.577 102.433 C 76.247 103.999,75.747 107.349,75.524 109.479 C 75.409 110.577,74.797 114.235,74.145 117.708 C 74.027 118.339,73.847 119.698,73.745 120.729 C 73.642 121.760,73.222 124.479,72.811 126.771 C 72.400 129.063,71.977 131.781,71.872 132.813 C 71.766 133.844,71.392 136.281,71.040 138.229 C 70.689 140.177,70.268 142.849,70.106 144.167 C 69.664 147.750,69.426 149.314,69.060 151.042 C 68.717 152.666,68.475 154.282,68.125 157.292 C 67.943 158.864,67.549 161.236,66.550 166.771 C 66.385 167.688,66.251 168.813,66.253 169.271 C 66.254 169.729,66.015 171.417,65.721 173.021 C 65.427 174.625,65.004 176.941,64.781 178.167 C 64.558 179.393,64.375 180.799,64.376 181.292 C 64.377 181.785,64.195 183.172,63.973 184.375 C 63.266 188.204,62.716 191.527,62.593 192.708 C 62.527 193.339,62.063 196.432,61.561 199.583 C 61.059 202.734,60.543 206.109,60.413 207.083 C 60.284 208.057,60.045 209.557,59.882 210.417 C 59.720 211.276,59.491 212.669,59.374 213.512 C 59.243 214.462,59.004 215.245,58.748 215.571 C 57.533 217.115,58.448 220.150,60.276 220.644 C 63.369 221.478,65.375 219.666,65.715 215.729 C 65.833 214.366,66.021 213.200,67.085 207.240 C 67.315 205.951,67.503 204.587,67.502 204.210 C 67.500 203.549,68.782 195.765,69.173 194.063 C 69.279 193.604,69.367 192.821,69.370 192.322 C 69.375 191.412,69.659 189.573,70.447 185.337 C 70.679 184.091,71.000 181.981,71.161 180.650 C 71.541 177.512,71.820 175.653,72.095 174.427 C 72.415 173.003,72.915 169.764,73.134 167.708 C 73.237 166.734,73.481 165.046,73.675 163.956 L 74.028 161.974 76.128 161.269 C 77.284 160.881,79.307 160.251,80.625 159.869 C 81.943 159.487,83.677 158.940,84.479 158.655 C 85.281 158.369,86.094 158.133,86.285 158.130 C 86.477 158.127,87.883 157.715,89.410 157.214 C 90.938 156.713,92.563 156.235,93.021 156.153 C 93.479 156.071,94.229 155.836,94.688 155.632 C 95.146 155.427,96.271 155.051,97.188 154.795 C 98.104 154.539,99.839 154.008,101.042 153.615 C 102.245 153.221,103.792 152.772,104.479 152.616 C 105.167 152.460,106.104 152.195,106.563 152.028 C 108.139 151.452,110.730 150.650,111.458 150.512 C 111.859 150.436,112.750 150.162,113.438 149.902 C 114.904 149.349,118.556 148.272,118.634 148.370 C 118.664 148.407,118.782 148.906,118.896 149.479 C 119.094 150.474,119.500 152.237,121.585 161.146 C 122.094 163.323,122.509 165.234,122.506 165.392 C 122.503 165.551,122.871 167.191,123.325 169.038 C 123.779 170.885,124.212 172.818,124.289 173.333 C 124.365 173.849,124.732 175.490,125.104 176.979 C 125.477 178.469,125.892 180.250,126.028 180.938 C 126.163 181.625,126.691 183.922,127.200 186.042 C 127.709 188.161,128.125 190.103,128.125 190.357 C 128.125 190.610,128.547 192.450,129.063 194.445 C 129.578 196.440,130.000 198.304,130.000 198.586 C 130.000 198.868,130.422 200.744,130.938 202.756 C 131.453 204.767,131.876 206.681,131.878 207.009 C 131.879 207.336,132.301 209.198,132.814 211.146 C 133.327 213.094,133.748 214.935,133.749 215.237 C 133.757 218.800,135.734 221.323,138.224 220.949 C 141.111 220.516,141.449 218.320,139.686 211.440 C 139.287 209.883,138.815 207.774,138.638 206.753 C 138.460 205.731,137.991 203.698,137.595 202.234 C 137.199 200.770,136.875 199.352,136.875 199.084 C 136.875 198.816,136.494 197.061,136.028 195.184 C 135.562 193.307,135.060 191.115,134.913 190.313 C 134.766 189.510,134.297 187.354,133.871 185.521 C 131.882 176.955,131.254 174.193,131.073 173.229 C 130.841 171.990,129.696 167.006,128.416 161.667 C 127.908 159.547,127.494 157.625,127.496 157.395 C 127.498 157.165,127.167 155.712,126.759 154.166 C 126.352 152.619,125.888 150.557,125.728 149.583 C 125.567 148.609,125.338 147.485,125.218 147.085 C 125.098 146.684,125.000 146.343,125.000 146.327 C 125.000 146.310,125.315 146.237,125.700 146.165 C 126.084 146.093,126.993 145.801,127.718 145.517 C 128.444 145.233,129.249 145.000,129.507 145.000 C 129.765 145.000,130.614 144.774,131.394 144.498 C 133.555 143.733,134.812 143.330,135.729 143.108 C 136.188 142.997,137.734 142.539,139.167 142.090 C 140.599 141.642,142.474 141.072,143.333 140.825 C 144.193 140.578,145.352 140.190,145.910 139.963 C 146.468 139.736,147.359 139.470,147.889 139.371 C 148.728 139.216,153.212 137.881,156.042 136.945 C 156.557 136.774,157.776 136.396,158.750 136.104 C 159.724 135.812,161.646 135.203,163.021 134.751 C 164.396 134.298,166.018 133.849,166.625 133.751 C 167.233 133.654,167.844 133.480,167.984 133.364 C 168.229 133.160,169.413 132.790,173.083 131.768 C 174.035 131.503,175.206 131.127,175.688 130.931 C 176.169 130.735,177.219 130.403,178.021 130.192 C 180.331 129.585,182.099 129.039,183.289 128.564 C 183.895 128.323,184.580 128.125,184.811 128.125 C 185.042 128.125,186.225 127.792,187.440 127.386 C 188.655 126.979,190.595 126.376,191.751 126.045 C 192.908 125.713,194.417 125.255,195.104 125.026 C 195.792 124.797,197.694 124.215,199.331 123.731 C 200.967 123.248,202.356 122.773,202.416 122.676 C 202.476 122.579,202.845 122.500,203.237 122.500 C 203.629 122.500,204.538 122.277,205.256 122.003 C 205.975 121.730,207.219 121.314,208.021 121.079 C 208.823 120.844,210.370 120.362,211.458 120.009 C 212.547 119.655,214.047 119.222,214.792 119.046 C 215.536 118.869,216.333 118.645,216.563 118.547 C 216.792 118.449,217.354 118.272,217.813 118.153 C 218.271 118.034,219.349 117.704,220.208 117.419 C 221.068 117.134,222.615 116.653,223.646 116.350 C 224.677 116.047,225.925 115.656,226.420 115.481 C 226.914 115.306,227.852 115.043,228.503 114.895 C 229.155 114.748,230.203 114.435,230.833 114.201 C 231.464 113.968,232.542 113.620,233.229 113.429 C 233.917 113.238,235.839 112.663,237.500 112.152 C 239.161 111.641,241.318 110.985,242.292 110.694 C 243.266 110.403,244.520 109.987,245.080 109.770 C 245.639 109.553,246.296 109.373,246.538 109.371 C 246.781 109.368,247.635 109.131,248.438 108.843 C 249.240 108.555,251.208 107.946,252.813 107.489 C 254.417 107.032,256.036 106.515,256.410 106.338 C 256.785 106.162,257.676 105.888,258.390 105.729 C 259.103 105.570,260.719 105.100,261.979 104.685 C 263.240 104.270,264.867 103.799,265.596 103.638 C 266.326 103.477,267.031 103.255,267.164 103.145 C 267.382 102.963,268.084 102.747,271.646 101.759 C 272.265 101.588,273.437 101.210,274.250 100.919 C 275.064 100.629,276.292 100.265,276.979 100.112 C 277.667 99.958,278.604 99.694,279.063 99.525 C 279.521 99.356,280.693 98.976,281.667 98.679 C 282.641 98.383,284.797 97.718,286.458 97.202 C 288.120 96.686,290.188 96.077,291.054 95.850 C 291.920 95.622,293.077 95.244,293.625 95.009 C 294.172 94.774,295.010 94.522,295.487 94.449 C 295.964 94.376,296.803 94.142,297.351 93.929 C 298.764 93.380,298.750 93.368,298.750 95.179 C 298.750 96.677,299.934 112.950,300.419 118.125 C 300.532 119.328,300.625 121.073,300.625 122.002 C 300.625 122.931,301.047 129.208,301.563 135.949 C 302.078 142.691,302.501 148.915,302.503 149.780 C 302.504 150.646,302.833 155.620,303.234 160.833 C 303.634 166.047,304.059 172.000,304.177 174.063 C 304.497 179.619,304.942 186.142,305.523 193.778 C 305.807 197.517,306.122 201.918,306.222 203.556 L 306.405 206.536 307.239 207.314 C 308.685 208.662,310.692 208.630,312.030 207.236 C 312.966 206.261,312.985 205.805,312.404 198.229 C 312.113 194.448,311.733 189.104,311.558 186.354 C 311.383 183.604,310.912 176.760,310.511 171.146 C 310.110 165.531,309.688 159.344,309.574 157.396 C 309.133 149.863,308.914 146.666,308.220 137.604 C 307.826 132.448,307.501 127.526,307.499 126.667 C 307.496 125.191,307.255 121.858,306.250 109.375 C 306.015 106.453,305.734 102.141,305.627 99.792 C 305.519 97.443,305.367 94.609,305.289 93.495 C 305.173 91.850,305.201 91.452,305.438 91.377 C 305.598 91.326,306.245 91.141,306.875 90.966 C 307.505 90.790,309.474 90.215,311.250 89.688 C 313.026 89.161,315.135 88.536,315.938 88.299 C 316.740 88.063,317.974 87.645,318.681 87.372 C 319.388 87.099,320.154 86.875,320.383 86.875 C 320.612 86.875,321.767 86.551,322.951 86.155 C 324.135 85.759,325.948 85.203,326.979 84.919 C 332.560 83.380,333.542 82.688,333.542 80.293 C 333.542 77.587,331.596 76.484,328.626 77.507 C 327.950 77.740,326.797 78.070,326.066 78.240 C 325.334 78.410,324.444 78.687,324.087 78.856 C 323.730 79.025,322.969 79.294,322.396 79.454 C 321.823 79.614,320.651 79.939,319.792 80.176 C 318.932 80.413,317.409 80.893,316.407 81.241 C 315.404 81.590,314.373 81.878,314.115 81.882 C 313.857 81.886,313.271 82.070,312.813 82.292 C 312.354 82.513,311.817 82.697,311.619 82.701 C 311.421 82.705,310.637 82.943,309.876 83.229 C 309.115 83.516,308.304 83.750,308.073 83.750 C 307.843 83.750,306.997 83.987,306.194 84.277 C 305.391 84.566,304.703 84.773,304.666 84.735 C 304.539 84.609,303.938 76.400,303.746 72.188 C 303.642 69.896,303.178 63.099,302.716 57.083 C 302.254 51.068,301.875 45.443,301.874 44.583 C 301.870 42.332,300.874 29.883,300.622 28.946 C 300.048 26.815,296.604 26.172,295.132 27.922 C 294.409 28.781,294.291 29.912,294.575 33.268 C 294.709 34.851,294.903 38.021,295.006 40.313 C 295.109 42.604,295.572 49.401,296.034 55.417 C 296.496 61.432,296.872 66.917,296.870 67.604 C 296.867 68.292,297.165 72.862,297.530 77.760 C 297.896 82.658,298.145 86.717,298.083 86.778 C 298.021 86.840,297.138 87.114,296.121 87.386 C 295.103 87.659,293.286 88.217,292.083 88.627 C 290.880 89.037,289.708 89.373,289.479 89.374 C 289.250 89.374,288.547 89.573,287.917 89.815 C 286.742 90.266,285.174 90.751,282.604 91.458 C 281.802 91.678,280.255 92.148,279.167 92.501 C 278.078 92.855,276.531 93.333,275.729 93.564 C 274.927 93.796,273.683 94.213,272.965 94.492 C 272.246 94.772,271.391 95.000,271.064 95.000 C 270.737 95.000,270.059 95.179,269.558 95.397 C 269.056 95.616,267.755 96.047,266.667 96.357 C 265.578 96.666,263.984 97.148,263.125 97.428 C 262.266 97.708,260.755 98.166,259.769 98.445 C 258.783 98.725,256.839 99.330,255.449 99.789 C 254.059 100.249,252.735 100.625,252.505 100.625 C 252.276 100.625,251.501 100.845,250.783 101.113 C 250.066 101.382,248.823 101.795,248.021 102.032 C 247.219 102.268,245.344 102.838,243.854 103.298 C 242.365 103.758,240.443 104.335,239.583 104.581 C 238.724 104.827,237.271 105.294,236.354 105.620 C 235.438 105.946,234.359 106.258,233.958 106.314 C 233.557 106.371,232.385 106.714,231.354 107.077 C 230.323 107.440,228.621 107.960,227.572 108.232 C 226.523 108.505,225.304 108.883,224.864 109.072 C 224.423 109.261,223.406 109.583,222.604 109.788 C 221.802 109.993,219.880 110.553,218.333 111.032 C 216.786 111.511,214.724 112.137,213.750 112.423 C 212.776 112.709,211.510 113.116,210.938 113.327 C 210.365 113.538,209.510 113.766,209.038 113.833 C 208.566 113.900,207.932 114.083,207.628 114.241 C 207.324 114.398,206.164 114.786,205.048 115.101 C 203.933 115.417,202.177 115.952,201.146 116.289 C 200.115 116.627,198.708 117.052,198.021 117.234 C 197.333 117.416,195.526 117.972,194.005 118.470 C 192.484 118.968,191.078 119.377,190.880 119.379 C 190.682 119.382,189.865 119.620,189.063 119.908 C 187.659 120.413,183.258 121.774,180.000 122.710 C 179.141 122.956,178.016 123.299,177.500 123.470 C 175.834 124.024,173.259 124.799,172.083 125.101 C 171.453 125.263,169.953 125.718,168.750 126.112 C 167.547 126.506,165.672 127.083,164.583 127.395 C 163.495 127.706,162.504 128.042,162.382 128.141 C 162.259 128.240,161.650 128.427,161.027 128.557 C 160.405 128.686,158.771 129.160,157.396 129.610 C 156.021 130.060,154.305 130.566,153.584 130.734 C 152.862 130.903,151.860 131.228,151.356 131.458 C 150.852 131.687,150.338 131.875,150.215 131.875 C 149.902 131.875,145.420 133.212,143.598 133.849 C 142.769 134.138,141.896 134.375,141.657 134.375 C 141.418 134.375,140.784 134.546,140.247 134.756 C 138.437 135.463,135.924 136.250,135.478 136.250 C 135.235 136.250,134.301 136.521,133.403 136.853 C 131.873 137.419,130.623 137.815,128.646 138.360 C 128.188 138.486,126.875 138.903,125.729 139.285 C 123.867 139.907,123.639 139.944,123.577 139.626 C 123.539 139.431,123.140 137.898,122.691 136.219 C 122.242 134.541,121.875 132.881,121.875 132.530 C 121.875 132.179,121.499 130.459,121.039 128.707 C 120.579 126.954,120.109 124.880,119.995 124.097 C 119.881 123.313,119.414 121.268,118.957 119.551 C 118.499 117.835,118.125 116.225,118.125 115.975 C 118.126 115.547,117.465 112.638,115.298 103.513 C 114.790 101.377,114.375 99.465,114.375 99.263 C 114.375 99.061,113.953 97.184,113.438 95.093 C 112.922 93.002,112.501 91.117,112.502 90.906 C 112.503 90.517,111.769 87.405,111.027 84.653 C 110.806 83.833,110.625 82.972,110.625 82.741 C 110.625 82.509,110.204 80.603,109.688 78.504 C 109.173 76.405,108.752 74.469,108.751 74.201 C 108.750 73.792,108.317 72.004,107.073 67.267 C 106.964 66.853,106.875 66.301,106.875 66.040 C 106.875 65.780,106.453 63.885,105.938 61.830 C 105.422 59.775,105.000 57.861,105.000 57.577 C 105.000 57.293,104.619 55.636,104.154 53.895 C 103.688 52.154,103.253 50.260,103.187 49.688 C 103.121 49.115,102.659 47.061,102.159 45.124 C 101.659 43.187,101.250 41.330,101.250 40.998 C 101.250 40.666,100.875 38.987,100.417 37.268 C 99.959 35.549,99.533 33.749,99.470 33.269 C 99.407 32.789,98.943 30.661,98.439 28.542 C 97.936 26.422,97.319 23.703,97.068 22.500 C 95.823 16.521,95.381 15.833,92.776 15.833 C 91.284 15.833,91.176 15.866,90.536 16.510 M94.068 39.167 C 94.251 40.026,94.483 41.151,94.584 41.667 C 94.685 42.182,95.108 44.057,95.525 45.833 C 95.941 47.609,96.410 49.672,96.568 50.417 C 96.725 51.161,97.138 52.990,97.485 54.479 C 97.833 55.969,98.309 58.078,98.545 59.167 C 98.780 60.255,99.203 62.130,99.485 63.333 C 101.094 70.189,101.880 73.684,101.878 73.976 C 101.876 74.158,102.296 75.986,102.810 78.039 C 103.325 80.091,103.747 81.961,103.748 82.194 C 103.749 82.427,104.172 84.302,104.687 86.361 C 105.202 88.420,105.624 90.307,105.624 90.554 C 105.625 90.801,106.047 92.656,106.563 94.676 C 107.078 96.696,107.500 98.573,107.500 98.847 C 107.500 99.120,107.922 100.984,108.438 102.987 C 108.953 104.990,109.375 106.872,109.375 107.168 C 109.375 107.465,109.797 109.333,110.313 111.320 C 110.828 113.307,111.250 115.177,111.250 115.476 C 111.250 115.774,111.662 117.641,112.165 119.624 C 112.668 121.607,113.145 123.698,113.224 124.271 C 113.303 124.844,113.735 126.732,114.184 128.467 C 114.633 130.202,115.000 131.844,115.000 132.116 C 115.000 132.388,115.411 134.249,115.914 136.253 C 116.417 138.257,116.880 140.318,116.943 140.833 L 117.058 141.771 115.664 142.254 C 114.898 142.520,113.099 143.066,111.667 143.466 C 110.234 143.867,108.640 144.369,108.124 144.581 C 107.608 144.794,106.483 145.152,105.624 145.377 C 103.114 146.037,100.984 146.702,100.331 147.031 C 99.998 147.199,99.248 147.415,98.665 147.511 C 98.081 147.607,96.807 147.966,95.833 148.310 C 94.859 148.653,93.167 149.171,92.072 149.462 C 90.976 149.752,89.617 150.167,89.051 150.385 C 87.938 150.812,82.089 152.612,80.729 152.946 C 80.271 153.059,79.333 153.339,78.646 153.570 C 77.121 154.081,75.166 154.614,75.103 154.536 C 75.077 154.505,75.265 153.354,75.521 151.979 C 76.392 147.298,76.883 144.272,76.879 143.608 C 76.875 142.989,77.924 136.544,78.331 134.688 C 78.431 134.229,78.575 133.151,78.652 132.292 C 78.728 131.432,79.014 129.417,79.288 127.813 C 79.884 124.319,80.479 120.517,80.918 117.396 C 81.095 116.135,81.524 113.481,81.870 111.497 C 82.217 109.513,82.500 107.522,82.500 107.072 C 82.500 106.622,82.725 105.057,83.000 103.595 C 83.966 98.462,84.376 95.930,84.375 95.104 C 84.375 94.646,84.555 93.286,84.775 92.083 C 85.757 86.718,86.038 85.017,86.152 83.750 C 86.272 82.414,86.515 80.848,87.298 76.354 C 87.688 74.118,87.854 72.998,88.337 69.375 C 88.467 68.401,88.748 66.620,88.962 65.417 C 89.803 60.679,90.000 59.389,90.000 58.623 C 90.000 58.186,90.230 56.558,90.511 55.007 C 91.696 48.469,91.879 47.362,91.877 46.710 C 91.876 46.333,92.203 44.117,92.604 41.785 C 93.005 39.454,93.335 37.418,93.337 37.262 C 93.344 36.611,93.751 37.671,94.068 39.167 M246.055 115.557 C 245.776 115.616,245.260 115.960,244.909 116.322 L 244.271 116.979 244.328 122.917 C 244.360 126.182,244.523 131.854,244.690 135.521 C 245.069 143.814,245.350 150.130,245.621 156.458 C 245.736 159.151,245.881 162.175,245.944 163.179 C 246.006 164.183,246.145 168.355,246.253 172.450 C 246.361 176.545,246.544 181.865,246.660 184.271 C 246.776 186.677,247.109 193.849,247.401 200.208 C 247.692 206.568,247.987 212.038,248.056 212.365 C 248.618 215.029,253.011 215.152,254.105 212.534 C 254.369 211.904,254.328 209.987,253.765 196.378 C 253.413 187.886,253.028 178.172,252.909 174.792 C 252.790 171.411,252.604 166.771,252.497 164.479 C 252.390 162.188,252.204 158.063,252.083 155.313 C 251.963 152.563,251.773 148.438,251.661 146.146 C 251.548 143.854,251.365 138.604,251.253 134.479 C 250.995 124.943,250.659 118.201,250.401 117.378 C 249.942 115.918,248.065 115.132,246.055 115.557 M225.850 158.276 C 221.978 159.003,220.217 159.712,216.875 161.888 C 216.703 162.000,216.261 162.230,215.893 162.400 C 215.525 162.569,214.892 162.999,214.487 163.354 L 213.750 164.001 213.750 162.636 C 213.750 159.558,211.270 159.032,203.438 160.449 L 202.188 160.675 198.906 163.990 C 197.102 165.814,195.625 167.364,195.625 167.435 C 195.625 167.506,195.259 167.913,194.811 168.339 L 193.996 169.114 193.855 166.692 C 193.500 160.610,193.034 159.687,190.322 159.688 C 189.237 159.689,188.954 159.775,188.277 160.313 C 186.823 161.469,186.780 159.178,188.880 192.396 C 189.293 198.927,189.719 205.911,189.827 207.917 C 189.935 209.922,190.069 211.951,190.125 212.427 C 190.512 215.701,195.879 215.849,196.546 212.604 C 196.616 212.260,196.540 209.964,196.375 207.500 C 195.651 196.637,194.988 185.871,194.844 182.604 L 194.688 179.063 195.596 177.917 C 196.096 177.286,196.588 176.740,196.690 176.701 C 196.792 176.663,196.875 176.509,196.875 176.358 C 196.875 176.208,197.203 175.797,197.604 175.445 C 198.005 175.092,198.333 174.727,198.333 174.632 C 198.333 174.537,198.708 174.093,199.167 173.646 C 199.625 173.198,200.000 172.751,200.000 172.652 C 200.000 172.419,201.979 170.176,203.886 168.247 L 205.377 166.740 208.320 166.378 C 211.655 165.967,212.444 165.756,212.984 165.129 C 213.418 164.624,213.398 164.924,212.815 167.708 C 212.658 168.453,212.435 169.672,212.318 170.417 C 212.200 171.161,211.905 172.661,211.661 173.750 C 211.416 174.839,211.093 176.292,210.943 176.979 C 209.858 181.932,211.082 193.837,213.439 201.250 C 213.930 202.797,214.397 204.438,214.474 204.896 C 214.552 205.354,214.796 206.140,215.016 206.641 C 215.237 207.143,215.417 207.699,215.417 207.877 C 215.417 208.771,216.369 210.036,218.323 211.742 C 219.459 212.733,220.512 213.665,220.663 213.814 C 223.602 216.708,223.765 216.735,230.315 215.404 C 232.605 214.939,235.089 214.480,235.833 214.385 C 239.084 213.970,240.559 212.269,239.816 209.790 C 239.230 207.835,237.626 207.268,234.479 207.904 C 233.333 208.136,231.232 208.561,229.809 208.850 C 226.059 209.611,225.744 209.583,224.479 208.379 C 223.906 207.833,223.249 207.248,223.019 207.079 C 222.042 206.360,221.500 205.416,221.146 203.814 C 220.948 202.919,220.661 201.944,220.508 201.647 C 220.356 201.349,219.953 200.034,219.613 198.725 C 219.273 197.415,218.799 195.763,218.560 195.054 C 218.321 194.344,218.125 193.311,218.125 192.759 L 218.125 191.755 220.052 191.410 C 222.107 191.042,225.963 190.375,231.875 189.365 C 239.175 188.118,238.847 188.321,239.584 184.581 C 239.813 183.420,240.002 182.125,240.005 181.703 C 240.008 181.282,240.108 180.516,240.226 180.000 C 241.549 174.268,241.877 170.822,241.177 170.024 C 241.015 169.839,240.571 169.125,240.191 168.438 C 239.811 167.750,239.449 167.141,239.386 167.083 C 239.196 166.912,238.766 166.197,238.318 165.313 C 237.564 163.822,236.874 162.636,236.559 162.288 C 236.389 162.100,236.250 161.790,236.250 161.598 C 236.250 161.407,236.156 161.250,236.042 161.250 C 235.927 161.250,235.833 161.161,235.833 161.052 C 235.833 160.682,234.594 159.017,233.754 158.257 C 232.653 157.263,231.226 157.266,225.850 158.276 M176.458 160.556 C 176.172 160.614,175.714 160.864,175.442 161.112 C 174.333 162.120,174.375 161.130,174.375 186.122 L 174.375 209.340 173.293 209.573 C 172.697 209.700,171.549 209.898,170.741 210.012 C 169.932 210.126,168.012 210.462,166.474 210.759 C 163.274 211.377,163.360 211.382,157.665 210.290 L 153.607 209.512 153.339 207.620 C 152.589 202.344,152.252 199.746,151.671 194.792 C 151.431 192.744,151.086 190.230,150.527 186.458 C 150.349 185.255,150.113 183.286,150.004 182.083 C 149.818 180.028,149.644 178.690,148.867 173.333 C 148.693 172.130,148.450 170.255,148.329 169.167 C 147.920 165.518,147.725 164.497,147.338 163.979 C 145.278 161.220,141.354 162.548,141.354 166.004 C 141.354 167.273,142.208 173.830,142.702 176.354 C 142.814 176.927,142.961 178.146,143.029 179.063 C 143.165 180.919,144.055 187.862,144.364 189.479 C 144.473 190.052,144.667 191.599,144.795 192.917 C 145.031 195.347,145.745 201.045,145.957 202.188 C 146.214 203.569,146.687 207.318,146.878 209.479 C 147.331 214.626,147.653 215.057,151.667 215.905 C 152.526 216.087,153.839 216.317,154.583 216.416 C 155.328 216.516,157.599 216.909,159.630 217.291 L 163.322 217.985 167.442 217.223 C 169.708 216.805,172.781 216.324,174.271 216.154 C 178.653 215.656,180.168 214.992,180.618 213.372 C 180.976 212.083,180.909 163.080,180.548 162.233 C 179.953 160.838,178.339 160.177,176.458 160.556 M230.702 165.596 C 231.118 166.211,231.458 166.790,231.458 166.884 C 231.458 166.977,231.820 167.600,232.262 168.267 C 232.704 168.933,233.133 169.690,233.214 169.948 C 233.295 170.206,233.449 170.417,233.556 170.417 C 233.663 170.417,233.750 170.506,233.750 170.615 C 233.750 170.723,234.030 171.227,234.372 171.734 L 234.993 172.655 234.061 177.506 C 233.549 180.174,233.100 182.386,233.063 182.423 C 232.931 182.555,229.957 183.125,229.399 183.125 C 229.084 183.125,226.817 183.511,224.361 183.984 C 218.367 185.136,217.556 185.203,217.406 184.556 C 217.122 183.325,216.948 180.895,217.112 180.454 C 217.211 180.188,217.381 179.251,217.489 178.371 C 217.597 177.491,217.885 175.880,218.129 174.792 C 218.999 170.912,219.370 169.055,219.372 168.565 C 219.375 168.035,219.892 167.518,220.430 167.507 C 220.609 167.503,221.359 167.097,222.097 166.605 C 223.818 165.455,229.300 163.857,229.817 164.355 C 229.888 164.423,230.286 164.982,230.702 165.596 M270.833 167.284 C 270.036 167.536,267.669 168.927,267.072 169.494 C 266.779 169.772,266.476 170.000,266.399 170.000 C 266.321 170.000,265.664 170.363,264.940 170.807 C 264.215 171.250,263.424 171.676,263.183 171.752 C 262.942 171.829,262.300 172.413,261.755 173.050 L 260.766 174.208 260.903 191.948 C 260.978 201.705,261.102 213.133,261.179 217.344 L 261.317 225.000 264.617 225.000 L 267.917 225.000 267.917 219.167 L 267.917 213.333 270.455 213.333 C 272.573 213.333,273.151 213.262,273.945 212.904 C 275.620 212.147,276.762 211.572,277.083 211.324 C 277.255 211.192,277.974 210.842,278.681 210.546 C 279.387 210.251,280.372 209.739,280.868 209.409 C 281.365 209.079,282.046 208.742,282.383 208.661 C 282.720 208.580,283.627 208.145,284.399 207.694 C 285.170 207.244,285.906 206.875,286.033 206.875 C 286.545 206.875,289.089 204.967,290.990 203.158 C 292.288 201.921,292.294 201.911,292.929 199.553 C 293.835 196.189,294.218 194.672,295.010 191.302 L 295.708 188.333 295.047 185.469 C 294.683 183.893,294.291 182.057,294.175 181.387 C 293.591 178.013,292.496 175.964,290.812 175.093 C 290.502 174.933,290.114 174.667,289.950 174.503 C 289.786 174.339,289.097 173.858,288.420 173.433 C 286.356 172.139,285.557 171.600,284.688 170.916 C 283.452 169.944,282.880 169.707,279.792 168.886 C 273.608 167.241,271.922 166.940,270.833 167.284 M274.405 174.366 C 275.133 174.590,276.245 174.864,276.875 174.975 C 278.725 175.301,279.867 175.658,280.313 176.050 C 280.926 176.590,283.386 178.243,284.195 178.658 C 284.877 179.007,285.807 179.683,286.476 180.314 C 286.657 180.485,286.913 180.625,287.045 180.625 C 287.301 180.625,287.400 180.970,287.612 182.595 C 287.686 183.163,288.025 184.690,288.365 185.990 L 288.982 188.353 288.241 190.999 C 287.833 192.455,287.500 193.802,287.500 193.992 C 287.500 195.360,286.377 198.469,285.667 199.063 C 284.354 200.162,281.097 201.958,276.250 204.256 C 275.620 204.555,274.964 204.886,274.792 204.992 C 272.816 206.209,270.928 206.875,269.455 206.875 L 267.917 206.875 267.917 191.888 L 267.917 176.901 269.323 175.976 C 272.694 173.759,272.565 173.800,274.405 174.366 " stroke="none" fill="#fff" fill-rule="evenodd"></path><path id="path1" d="" stroke="none" fill="#fff" fill-rule="evenodd"></path><path id="path2" d="" stroke="none" fill="#fff" fill-rule="evenodd"></path><path id="path3" d="" stroke="none" fill="#fff" fill-rule="evenodd"></path><path id="path4" d="" stroke="none" fill="#fff" fill-rule="evenodd"></path></g></svg>